# xmcd
#
# Track frame offsets:
#	150
#	16062
#	33191
#	47762
#	59333
#	71260
#	89145
#	105071
#	117580
#	130527
#	147147
#	162907
#	180898
#	196794
#	215648
#	227516
#	240588
#	252889
#	267228
#	278967
#	288498
#	298362
#	316062
#	325293
#	340997
#
# Disc length: 4708 seconds
#
# Revision: 1
# Processed by: cddbd v1.5.2PL0 Copyright (c) Steve Scherf et al.
# Submitted via: EasyCDDAExtractor 2010.4.0.0
#
DISCID=67126219
DTITLE=Various Artist - Classic Oldies Volume 7
DYEAR=1900
DGENRE=Oldies
TTITLE0=Johnny Clarke and Hortense Ellis - In Paradise
TTITLE1=Ozzie Scott - Paradise Waltz
TTITLE2=Johnny Clarke and Hortense Ellis - Dearest 
TTITLE3=Jo Jo bennet with Mudie's Allstars - Leaving Rome 
TTITLE4=Lloyd Jones and Mudie's Allstar - Rome
TTITLE5=Bryon Lee and The Dragonaires - Asi Fue 
TTITLE6=Jacky Edwards - Come to Me Softly 
TTITLE7=Bobby Davis - Tell Laura i Love Her 
TTITLE8=Valerie Harrison - Tell Tommy I Love Him 
TTITLE9=Lloyd Chalmers - Spanish Harlem 
TTITLE10=Jimmy Riley - Mexican Divorce 
TTITLE11=Carrie Lucas - Hello Stranger 
TTITLE12=Dobby Dobson - It's A Miracle
TTITLE13=Dobby Dobson - Little Star
TTITLE14=Mary Wells - You Beat Me to the Punch 
TTITLE15=Junior Walker 7 The Allstars - Hot Cha 
TTITLE16=Derede Williams - Letter to Mommy and Daddy 
TTITLE17=Dobby Dobson - When You Dance
TTITLE18=Phil Fraser - Let Me Tell You Babe 
TTITLE19=The Brass Ring - Lara's Theme 
TTITLE20=Sha-Na-Na - Magic Changes 
TTITLE21=Jackie Edwards - Tell Me Darling
TTITLE22=The Jays - Pretty Blue Eyes
TTITLE23=Howard Huntsberry - Lonely Teardrops 
TTITLE24=Dobby Dobson - Rock And Cry -- Dobby Donson
EXTD=
EXTT0=
EXTT1=
EXTT2=
EXTT3=
EXTT4=
EXTT5=
EXTT6=
EXTT7=
EXTT8=
EXTT9=
EXTT10=
EXTT11=
EXTT12=
EXTT13=
EXTT14=
EXTT15=
EXTT16=
EXTT17=
EXTT18=
EXTT19=
EXTT20=
EXTT21=
EXTT22=
EXTT23=
EXTT24=
PLAYORDER=
